<svg preserveAspectRatio="none" overflow="visible" style="display: block;" width="34" height="34" viewBox="0 0 34 34" fill="none" xmlns="http://www.w3.org/2000/svg">
<g id="icon_building">
<path id="Vector" d="M29.92 27.948H28.203V12.427C28.203 10.013 26.826 8.976 25.959 8.806L20.451 7.089V5.185C20.451 4.845 20.281 4.675 20.111 4.488C19.941 4.318 19.601 4.318 19.414 4.318L7.871 7.599C7.871 7.599 5.797 8.109 5.797 10.88V27.948H4.08C3.57 27.948 3.213 28.288 3.213 28.815C3.213 29.325 3.553 29.682 4.08 29.682H29.92C30.43 29.682 30.787 29.342 30.787 28.815C30.787 28.288 30.447 27.948 29.92 27.948ZM18.717 27.948H7.514V10.88C7.514 9.673 8.211 9.333 8.381 9.333L18.717 6.409V27.948ZM26.486 27.948H20.451V8.806L25.772 10.574L25.891 10.625C25.891 10.625 26.418 10.846 26.503 12.427V27.948H26.486ZM12.342 9.962H10.625V11.679H12.342V9.962ZM16.303 9.962H14.586V11.679H16.303V9.962ZM12.342 13.719H10.625V15.436H12.342V13.719ZM16.303 13.719H14.586V15.436H16.303V13.719ZM12.342 17.476H10.625V19.193H12.342V17.476ZM16.303 17.476H14.586V19.193H16.303V17.476ZM12.342 21.216H10.625V22.95H12.342V21.216ZM16.303 21.216H14.586V22.95H16.303V21.216ZM12.342 24.973H10.625V26.69H12.342V24.973ZM16.303 24.973H14.586V26.69H16.303V24.973ZM22.695 15.011H24.412V13.294H22.695V15.011ZM22.695 18.972H24.412V17.255H22.695V18.972ZM22.695 22.746H24.412V21.029H22.695V22.746ZM22.695 26.571H24.412V24.854H22.695V26.571Z" fill="black"/>
</g>
</svg>
