<svg preserveAspectRatio="none" overflow="visible" style="display: block;" width="46" height="38" viewBox="0 0 46 38" fill="none" xmlns="http://www.w3.org/2000/svg">
<g id="icon_lock">
<path id="Vector" d="M34.5 15.4375H33.0625V11.875C33.0625 7.28413 28.5574 3.5625 23 3.5625C17.4426 3.5625 12.9375 7.28413 12.9375 11.875V15.4375H11.5C9.11806 15.4375 7.1875 17.0323 7.1875 19V30.875C7.1875 32.8427 9.11806 34.4375 11.5 34.4375H34.5C36.8819 34.4375 38.8125 32.8427 38.8125 30.875V19C38.8125 17.0323 36.8819 15.4375 34.5 15.4375ZM15.8125 11.875C15.8125 8.60106 19.0368 5.9375 23 5.9375C26.9632 5.9375 30.1875 8.60106 30.1875 11.875V15.4375H15.8125V11.875ZM35.9375 30.875C35.9375 31.5305 35.2935 32.0625 34.5 32.0625H11.5C10.7065 32.0625 10.0625 31.5305 10.0625 30.875V19C10.0625 18.3445 10.7065 17.8125 11.5 17.8125H34.5C35.2935 17.8125 35.9375 18.3445 35.9375 19V30.875Z" fill="#474747"/>
<path id="Vector_2" d="M23 21.375C21.4123 21.375 20.125 22.4384 20.125 23.75C20.125 24.627 20.7022 25.3899 21.5596 25.8008L20.8438 28.5H25.1562L24.4404 25.8008C25.2978 25.3899 25.875 24.627 25.875 23.75C25.875 22.4384 24.5877 21.375 23 21.375Z" fill="#474747"/>
</g>
</svg>
